<svg width="17" height="13" viewBox="0 0 17 13" fill="none" xmlns="http://www.w3.org/2000/svg">
<path d="M14.4435 1.49473C13.407 1.03431 12.2957 0.695098 11.1336 0.500815C11.1125 0.497065 11.0914 0.506436 11.0805 0.525177C10.9375 0.77131 10.7792 1.09241 10.6683 1.3448C9.41846 1.16364 8.17505 1.16364 6.95082 1.3448C6.83993 1.0868 6.67585 0.77131 6.53227 0.525177C6.52137 0.507061 6.50023 0.49769 6.47907 0.500815C5.31768 0.694477 4.20629 1.03369 3.16924 1.49473C3.16025 1.49848 3.15256 1.50473 3.14745 1.51285C1.03937 4.56207 0.461878 7.53637 0.745177 10.4738C0.746458 10.4881 0.754791 10.5019 0.766328 10.5106C2.15718 11.4995 3.50446 12.0998 4.82672 12.4978C4.84788 12.5041 4.87031 12.4965 4.88377 12.4797C5.19655 12.0662 5.47537 11.6301 5.71443 11.1715C5.72853 11.1447 5.71506 11.1128 5.68623 11.1022C5.24398 10.9398 4.82287 10.7417 4.41779 10.5168C4.38575 10.4988 4.38318 10.4544 4.41266 10.4331C4.49791 10.3712 4.58317 10.3069 4.66457 10.242C4.6793 10.2301 4.69982 10.2276 4.71713 10.2351C7.37832 11.4115 10.2594 11.4115 12.8892 10.2351C12.9065 10.227 12.927 10.2295 12.9424 10.2414C13.0238 10.3063 13.1091 10.3712 13.1949 10.4331C13.2244 10.4544 13.2225 10.4988 13.1904 10.5168C12.7853 10.7461 12.3643 10.9398 11.9213 11.1016C11.8926 11.1122 11.8797 11.1447 11.8938 11.1715C12.138 11.6294 12.4168 12.0655 12.7238 12.4791C12.7366 12.4965 12.7597 12.5041 12.7809 12.4978C14.1095 12.0998 15.4568 11.4995 16.8476 10.5106C16.8598 10.5019 16.8676 10.4887 16.8688 10.4744C17.2079 7.07841 16.3009 4.12853 14.4646 1.51347C14.4601 1.50473 14.4525 1.49848 14.4435 1.49473ZM6.11183 8.6852C5.31063 8.6852 4.65046 7.97304 4.65046 7.09841C4.65046 6.2238 5.29782 5.51165 6.11183 5.51165C6.93222 5.51165 7.586 6.23006 7.57319 7.09841C7.57319 7.97304 6.92581 8.6852 6.11183 8.6852ZM11.515 8.6852C10.7138 8.6852 10.0537 7.97304 10.0537 7.09841C10.0537 6.2238 10.701 5.51165 11.515 5.51165C12.3354 5.51165 12.9891 6.23006 12.9763 7.09841C12.9763 7.97304 12.3354 8.6852 11.515 8.6852Z" fill="white" fill-opacity="0.48"/>
</svg>
