<svg width="120" height="120" viewBox="0 0 120 120" fill="none" xmlns="http://www.w3.org/2000/svg">
<g opacity="0.5">
<path d="M98.6972 46.7318L60.0005 46.7315L71.2868 32.1534C72.1296 31.0647 73.9458 30.3687 75.9434 30.3687H107.338C109.215 30.3687 110.458 31.5403 109.666 32.5636L98.6972 46.7318Z" fill="url(#paint0_linear_465_1186)"/>
<path d="M21.3018 46.7318H59.9984L48.7123 32.1534C47.8695 31.0647 46.0533 30.3687 44.0557 30.3687H12.6614C10.7838 30.3687 9.54093 31.5403 10.3332 32.5636L21.3018 46.7318Z" fill="url(#paint1_linear_465_1186)"/>
</g>
<path opacity="0.6" d="M21.311 66.7323C21.311 59.7316 21.311 56.2314 22.6735 53.5574C23.8718 51.2055 25.7841 49.2932 28.1363 48.0948C30.81 46.7324 34.3104 46.7324 41.311 46.7324H98.6878V80.0718C98.6878 87.0723 98.6878 90.5727 97.3254 93.2465C96.1271 95.5987 94.2148 97.5109 91.8628 98.7093C89.1889 100.072 85.6887 100.072 78.6879 100.072H41.311C34.3104 100.072 30.81 100.072 28.1363 98.7093C25.7841 97.5109 23.8718 95.5987 22.6735 93.2465C21.311 90.5727 21.311 87.0723 21.311 80.0718V66.7323Z" fill="url(#paint2_linear_465_1186)"/>
<path d="M21.311 46.7324H59.9995V100.072H34.1513C27.0598 100.072 21.311 94.323 21.311 87.2315V46.7324Z" fill="url(#paint3_linear_465_1186)"/>
<g opacity="0.5">
<path d="M21.3008 46.7324H59.9975L48.6746 71.0629C47.8543 72.8259 46.0862 73.9532 44.1415 73.9532H12.5537C10.7259 73.9532 9.51594 72.0557 10.2872 70.3984L21.3008 46.7324Z" fill="url(#paint4_linear_465_1186)"/>
<path d="M98.6992 46.7324H60.0024L71.3251 71.0629C72.1457 72.8259 73.9138 73.9532 75.8584 73.9532H107.446C109.274 73.9532 110.484 72.0557 109.713 70.3984L98.6992 46.7324Z" fill="url(#paint5_linear_465_1186)"/>
</g>
<path d="M77.3803 25.5328C76.774 25.1829 76.471 25.0078 76.3076 24.7561C76.1637 24.5349 76.0938 24.2735 76.1077 24.0101C76.1234 23.7103 76.2982 23.4072 76.6484 22.8009L81.8913 13.7198C82.2413 13.1136 82.4163 12.8104 82.6681 12.647C82.8893 12.5032 83.1506 12.4332 83.4143 12.447C83.7139 12.4628 84.0171 12.6378 84.6232 12.9878L86.5718 14.1128C87.1781 14.4628 87.4812 14.6378 87.6448 14.8895C87.7885 15.1109 87.8585 15.3721 87.8447 15.6357C87.829 15.9354 87.6539 16.2386 87.304 16.8448L82.061 25.9259C81.7109 26.5322 81.536 26.8353 81.2843 26.9989C81.0628 27.1425 80.8017 27.2126 80.5381 27.1988C80.2383 27.1831 79.9353 27.008 79.3289 26.6578L77.3803 25.5328Z" fill="url(#paint6_linear_465_1186)"/>
<path d="M59.0688 21.126C58.3687 21.126 58.0188 21.126 57.7513 20.9898C57.516 20.8699 57.3248 20.6787 57.205 20.4435C57.0688 20.1761 57.0688 19.8261 57.0688 19.126V8.64013C57.0688 7.94005 57.0688 7.59003 57.205 7.32264C57.3248 7.08744 57.516 6.89621 57.7513 6.77638C58.0188 6.64014 58.3687 6.64014 59.0688 6.64014H61.3188C62.0188 6.64014 62.369 6.64014 62.6362 6.77638C62.8715 6.89621 63.0628 7.08744 63.1825 7.32264C63.3187 7.59003 63.3187 7.94005 63.3187 8.64013V19.126C63.3187 19.8261 63.3187 20.1761 63.1825 20.4435C63.0628 20.6787 62.8715 20.8699 62.6362 20.9898C62.369 21.126 62.0188 21.126 61.3188 21.126H59.0688Z" fill="url(#paint7_linear_465_1186)"/>
<path d="M33.7633 13.9189C33.157 14.269 32.8539 14.444 32.6906 14.6956C32.5467 14.917 32.4768 15.1783 32.4904 15.4419C32.5061 15.7416 32.6812 16.0447 33.0314 16.651L38.2743 25.7321C38.6243 26.3384 38.7993 26.6414 39.0511 26.8048C39.2723 26.9487 39.5336 27.0185 39.7973 27.005C40.0968 26.9893 40.4001 26.8142 41.0062 26.464L42.9548 25.339C43.5611 24.9891 43.8642 24.814 44.0278 24.5623C44.1715 24.341 44.2415 24.0797 44.2277 23.816C44.212 23.5165 44.0369 23.2133 43.687 22.607L38.444 13.526C38.0939 12.9197 37.9188 12.6166 37.6673 12.4531C37.4458 12.3094 37.1845 12.2394 36.9211 12.2532C36.6213 12.2689 36.3182 12.4439 35.7119 12.7939L33.7633 13.9189Z" fill="url(#paint8_linear_465_1186)"/>
<path d="M40.9619 88.8214C40.9619 88.131 41.5216 87.5713 42.2118 87.5713H52.4927C53.1829 87.5713 53.7426 88.131 53.7426 88.8214V92.5714C53.7426 93.2617 53.1829 93.8214 52.4927 93.8214H42.2118C41.5216 93.8214 40.9619 93.2617 40.9619 92.5714V88.8214Z" fill="url(#paint9_linear_465_1186)"/>
<defs>
<linearGradient id="paint0_linear_465_1186" x1="52.4876" y1="14.8235" x2="52.4876" y2="60.2053" gradientUnits="userSpaceOnUse">
<stop stop-color="#C3C3C3" stop-opacity="0.91"/>
<stop offset="1" stop-color="#F1F1F1" stop-opacity="0.62"/>
</linearGradient>
<linearGradient id="paint1_linear_465_1186" x1="52.4874" y1="14.8235" x2="52.4874" y2="60.2053" gradientUnits="userSpaceOnUse">
<stop stop-color="#C3C3C3" stop-opacity="0.91"/>
<stop offset="1" stop-color="#F1F1F1" stop-opacity="0.62"/>
</linearGradient>
<linearGradient id="paint2_linear_465_1186" x1="1.37814" y1="118.527" x2="112.35" y2="46.7324" gradientUnits="userSpaceOnUse">
<stop stop-color="#8D8D8D" stop-opacity="0.91"/>
<stop offset="1" stop-color="#D1D1D1" stop-opacity="0.62"/>
</linearGradient>
<linearGradient id="paint3_linear_465_1186" x1="9.15143" y1="46.7324" x2="67.069" y2="93.0241" gradientUnits="userSpaceOnUse">
<stop stop-color="#ECECEC"/>
<stop offset="1" stop-color="#BFBFBF"/>
</linearGradient>
<linearGradient id="paint4_linear_465_1186" x1="15.1693" y1="90.8507" x2="43.3334" y2="32.2373" gradientUnits="userSpaceOnUse">
<stop stop-color="#8F8F8F" stop-opacity="0.91"/>
<stop offset="1" stop-color="#D2D2D2" stop-opacity="0.62"/>
</linearGradient>
<linearGradient id="paint5_linear_465_1186" x1="15.1691" y1="90.8507" x2="43.3332" y2="32.2373" gradientUnits="userSpaceOnUse">
<stop stop-color="#8F8F8F" stop-opacity="0.91"/>
<stop offset="1" stop-color="#D2D2D2" stop-opacity="0.62"/>
</linearGradient>
<linearGradient id="paint6_linear_465_1186" x1="87.8464" y1="12.4453" x2="76.0846" y2="12.4453" gradientUnits="userSpaceOnUse">
<stop stop-color="#2778E9"/>
<stop offset="1" stop-color="#439FE7"/>
</linearGradient>
<linearGradient id="paint7_linear_465_1186" x1="63.3187" y1="6.64014" x2="57.0575" y2="6.64014" gradientUnits="userSpaceOnUse">
<stop stop-color="#2778E9"/>
<stop offset="1" stop-color="#439FE7"/>
</linearGradient>
<linearGradient id="paint8_linear_465_1186" x1="44.2294" y1="12.2515" x2="32.4675" y2="12.2515" gradientUnits="userSpaceOnUse">
<stop stop-color="#2778E9"/>
<stop offset="1" stop-color="#439FE7"/>
</linearGradient>
<linearGradient id="paint9_linear_465_1186" x1="57.2669" y1="98.4878" x2="35.7839" y2="75.2143" gradientUnits="userSpaceOnUse">
<stop stop-color="white" stop-opacity="0.85"/>
<stop offset="1" stop-color="white" stop-opacity="0.37"/>
</linearGradient>
</defs>
</svg>
