<svg width="33" height="34" viewBox="0 0 33 34" fill="none" xmlns="http://www.w3.org/2000/svg">
<path d="M25.1613 27.8892L28.1354 29.3471C29.0103 29.776 30.0702 29.3954 30.4084 28.4817C31.2777 26.133 31.9573 23.3511 32.1914 20.4892C32.4653 17.1405 32.1268 13.7166 30.8014 10.7538L30.7995 10.7546C30.7406 10.6269 30.6807 10.4996 30.6199 10.3728C30.1639 9.49517 29.3097 8.41883 28.0518 7.70666C26.6339 6.90393 24.6642 6.54063 22.0795 7.51188C21.5312 7.71792 20.9729 7.98419 20.4131 8.30181C21.1162 9.50189 21.62 11.1204 21.66 13.2546C21.6962 15.1835 21.3842 17.0101 20.9063 18.6375L25.4365 20.3247C26.5067 20.7234 27.2091 21.7825 26.996 22.9045C26.7391 24.2574 26.3079 25.5744 25.7157 26.8258C25.548 27.1802 25.3636 27.536 25.1613 27.8892Z" fill="white"/>
<path d="M9.80396 26.6106C10.1908 26.4938 10.5993 26.3248 11.028 26.0899C12.8437 25.0947 14.2169 23.4697 15.193 21.8757C15.8259 20.8422 16.3019 19.8054 16.6291 18.9296C16.7765 18.535 17.2128 18.3205 17.6075 18.4675L24.9394 21.1983C25.6773 21.4732 26.1424 22.2157 25.9767 22.9855C25.7577 24.0025 25.3887 25.1989 24.8193 26.4022C23.8868 28.3728 22.4338 30.3278 20.2595 31.5635C18.463 32.5846 16.6256 33.1113 14.908 33.1905C13.0365 32.8728 11.8088 32.058 11.0267 30.9698C10.1985 29.8176 9.83033 28.3035 9.80396 26.6106Z" fill="white"/>
<path d="M14.3472 0.95454C18.9711 0.411737 22.4068 1.43796 25.0147 3.28517C26.4004 4.26667 27.564 5.48836 28.551 6.8506L28.5403 6.84458C26.8571 5.89159 24.5798 5.51391 21.7307 6.58448C17.906 8.02167 13.7828 12.0716 11.5876 16.2017C10.1638 18.8805 8.75965 22.9882 8.81273 26.6137C8.83934 28.4309 9.23291 30.1728 10.2219 31.5488C10.5662 32.0278 10.9779 32.4558 11.462 32.8241C7.93985 31.9451 3.50808 29.4978 1.11971 23.8567C-0.96456 18.9339 0.0264568 13.4845 2.72689 9.10468C5.43146 4.71814 9.79903 1.48846 14.3472 0.95454Z" fill="white"/>
</svg>
