<svg width="13" height="13" viewBox="0 0 13 13" fill="none" xmlns="http://www.w3.org/2000/svg">
<path fill-rule="evenodd" clip-rule="evenodd" d="M3.07222 1.81631C3.07222 2.53391 2.52583 3.11465 1.67136 3.11465C0.850179 3.11465 0.303784 2.53391 0.320694 1.81631C0.303784 1.06383 0.850166 0.5 1.68773 0.5C2.52581 0.5 3.05584 1.06383 3.07222 1.81631ZM0.389392 12.499V4.14033H2.98714V12.4985L0.389392 12.499Z" fill="white" fill-opacity="0.48"/>
<path fill-rule="evenodd" clip-rule="evenodd" d="M5.06937 6.80778C5.06937 5.7652 5.03502 4.87638 5.00067 4.14134H7.25705L7.377 5.28645H7.42827C7.77016 4.75643 8.62463 3.95375 10.0091 3.95375C11.7181 3.95375 13 5.08194 13 7.5423V12.5H10.4023V7.86781C10.4023 6.79034 10.0266 6.05583 9.08648 6.05583C8.36834 6.05583 7.94138 6.5515 7.77069 7.02972C7.702 7.20093 7.66818 7.43978 7.66818 7.67969V12.5H5.07042V6.80778H5.06937Z" fill="white" fill-opacity="0.48"/>
</svg>
