<svg width="16" height="13" viewBox="0 0 16 13" fill="none" xmlns="http://www.w3.org/2000/svg">
<path fill-rule="evenodd" clip-rule="evenodd" d="M15.3202 1.92039C14.7773 2.16155 14.1931 2.32397 13.5804 2.3973C14.2059 2.02227 14.6863 1.42872 14.9122 0.721473C14.3275 1.06894 13.6783 1.32044 12.9888 1.45677C12.4361 0.868141 11.6481 0.5 10.7775 0.5C9.1046 0.5 7.74819 1.85641 7.74819 3.52928C7.74819 3.76651 7.77526 3.99783 7.82694 4.21979C5.30902 4.0938 3.07704 2.8875 1.58283 1.05467C1.32198 1.50205 1.17285 2.02227 1.17285 2.57744C1.17285 3.62821 1.70685 4.55545 2.5204 5.09881C2.02332 5.08306 1.55674 4.94672 1.14775 4.71984V4.75773C1.14775 6.22586 2.19262 7.44988 3.57758 7.72894C3.32362 7.79784 3.05588 7.83525 2.77978 7.83525C2.58439 7.83525 2.39441 7.81605 2.20935 7.78062C2.59472 8.98396 3.71391 9.86002 5.03931 9.88463C4.00281 10.6967 2.6966 11.1815 1.27719 11.1815C1.03209 11.1815 0.790931 11.1672 0.554199 11.1387C1.89486 11.998 3.48702 12.5 5.19779 12.5C10.7696 12.5 13.8166 7.88397 13.8166 3.88118C13.8166 3.74977 13.8141 3.61886 13.8077 3.48942C14.4003 3.06124 14.9141 2.52773 15.3202 1.92039Z" fill="white" fill-opacity="0.48"/>
</svg>
