<svg width="33" height="33" viewBox="0 0 33 33" fill="none" xmlns="http://www.w3.org/2000/svg">
<path d="M25.1613 27.3894L28.1354 28.8474C29.0103 29.2763 30.0702 28.8956 30.4084 27.9819C31.2777 25.6332 31.9573 22.8514 32.1914 19.9895C32.4653 16.6408 32.1268 13.2168 30.8014 10.254L30.7995 10.2549C30.7406 10.1272 30.6807 9.99988 30.6199 9.87299C30.1639 8.99541 29.3097 7.91908 28.0518 7.2069C26.6339 6.40417 24.6642 6.04088 22.0795 7.01212C21.5312 7.21817 20.9729 7.48443 20.4131 7.80206C21.1162 9.00214 21.62 10.6207 21.66 12.7548C21.6962 14.6837 21.3842 16.5103 20.9063 18.1377L25.4365 19.825C26.5067 20.2236 27.2091 21.2828 26.996 22.4048C26.7391 23.7577 26.3079 25.0746 25.7157 26.326C25.548 26.6804 25.3636 27.0362 25.1613 27.3894Z" fill="white"/>
<path d="M9.80396 26.1109C10.1908 25.994 10.5993 25.8251 11.028 25.5901C12.8437 24.595 14.2169 22.97 15.193 21.3759C15.8259 20.3424 16.3019 19.3056 16.6291 18.4299C16.7765 18.0353 17.2128 17.8208 17.6075 17.9678L24.9394 20.6986C25.6773 20.9734 26.1424 21.716 25.9767 22.4857C25.7577 23.5027 25.3887 24.6991 24.8193 25.9024C23.8868 27.8731 22.4338 29.8281 20.2595 31.0638C18.463 32.0849 16.6256 32.6116 14.908 32.6907C13.0365 32.3731 11.8088 31.5582 11.0267 30.47C10.1985 29.3179 9.83033 27.8038 9.80396 26.1109Z" fill="white"/>
<path d="M14.3472 0.45454C18.9711 -0.0882634 22.4068 0.937957 25.0147 2.78517C26.4004 3.76667 27.564 4.98836 28.551 6.3506L28.5403 6.34458C26.8571 5.39159 24.5798 5.01391 21.7307 6.08448C17.906 7.52167 13.7828 11.5716 11.5876 15.7017C10.1638 18.3805 8.75965 22.4882 8.81273 26.1137C8.83934 27.9309 9.23291 29.6728 10.2219 31.0488C10.5662 31.5278 10.9779 31.9558 11.462 32.3241C7.93985 31.4451 3.50808 28.9978 1.11971 23.3567C-0.96456 18.4339 0.0264568 12.9845 2.72689 8.60468C5.43146 4.21814 9.79903 0.988462 14.3472 0.45454Z" fill="white"/>
</svg>
