<svg width="12" height="13" viewBox="0 0 12 13" fill="none" xmlns="http://www.w3.org/2000/svg">
<path d="M4.18186 12.1139C4.56852 12.1831 4.70942 11.9497 4.70942 11.7492C4.70942 11.6662 4.70799 11.5196 4.70608 11.3233C4.70388 11.0961 4.70102 10.8023 4.69898 10.4639C2.54938 10.9205 2.09584 9.45044 2.09584 9.45044C1.74429 8.57761 1.23761 8.34513 1.23761 8.34513C0.535946 7.876 1.29075 7.88528 1.29075 7.88528C2.06642 7.93911 2.47443 8.66438 2.47443 8.66438C3.16376 9.81933 4.28339 9.4857 4.72365 9.29267C4.79387 8.80405 4.99312 8.47088 5.2142 8.28202C3.49822 8.09131 1.694 7.44261 1.694 4.54617C1.694 3.72114 1.99526 3.04645 2.48961 2.51792C2.40991 2.32674 2.1447 1.55832 2.56504 0.517516C2.56504 0.517516 3.21405 0.314273 4.69044 1.29244C5.30671 1.12492 5.96806 1.04094 6.62513 1.03815C7.28125 1.04094 7.94259 1.12492 8.55981 1.29244C10.0353 0.314273 10.6828 0.517516 10.6828 0.517516C11.1046 1.55832 10.8394 2.32674 10.7597 2.51792C11.255 3.04645 11.5543 3.72114 11.5543 4.54617C11.5543 7.45003 9.74728 8.08899 8.02561 8.27599C8.30315 8.50939 8.55032 8.97064 8.55032 9.67595C8.55032 10.3515 8.54608 10.94 8.54327 11.3297C8.54187 11.5228 8.54083 11.6671 8.54083 11.7492C8.54083 11.9515 8.67984 12.1868 9.07218 12.113C9.07218 12.113 9.83059 12.5 6.62489 12.5C2.91619 12.5 4.18186 12.1139 4.18186 12.1139Z" fill="white" fill-opacity="0.48"/>
</svg>
