<svg width="14" height="14" viewBox="0 0 14 14" fill="none" xmlns="http://www.w3.org/2000/svg">
<g id="key" clip-path="url(#clip0_420_1939)">
<path id="Vector" d="M13.5625 0H11.8125C11.7066 0 11.6042 0.0385 11.5238 0.1085L5.4845 5.40313C5.17213 5.3375 4.68913 5.25 4.375 5.25C1.96263 5.25 0 7.21263 0 9.625C0 12.0374 1.96263 14 4.375 14C6.78737 14 8.75 12.0374 8.75 9.625C8.75 8.90837 8.6135 8.428 8.45862 8.029L9.94788 7.52325C10.036 7.49329 10.1124 7.43598 10.1657 7.35965C10.2191 7.28333 10.2467 7.19197 10.2445 7.09888L10.2078 5.43813L11.879 5.32175C11.9871 5.31422 12.0886 5.26682 12.1638 5.18874C12.2389 5.11066 12.2825 5.00745 12.2859 4.89913L12.348 2.905L13.657 2.6145C13.7542 2.59299 13.8412 2.53895 13.9036 2.46131C13.9659 2.38368 14 2.28708 14 2.1875V0.4375C14 0.321468 13.9539 0.210188 13.8719 0.128141C13.7898 0.0460936 13.6785 0 13.5625 0ZM3.0625 9.625C3.41049 9.62535 3.74413 9.76374 3.99019 10.0098C4.23626 10.2559 4.37465 10.5895 4.375 10.9375C4.36616 11.2797 4.224 11.605 3.97883 11.8439C3.73365 12.0828 3.40484 12.2165 3.0625 12.2165C2.72016 12.2165 2.39135 12.0828 2.14617 11.8439C1.901 11.605 1.75884 11.2797 1.75 10.9375C1.75 10.213 2.338 9.625 3.0625 9.625Z" fill="white" fill-opacity="0.76"/>
</g>
<defs>
<clipPath id="clip0_420_1939">
<rect width="14" height="14" fill="white"/>
</clipPath>
</defs>
</svg>
