<svg width="14" height="14" viewBox="0 0 14 14" fill="none" xmlns="http://www.w3.org/2000/svg">
<g id="Logout">
<g id="Iconly/Bold/Logout">
<g id="Logout_2">
<path id="Vector" d="M6.70418 1.16663C8.15233 1.16663 9.33341 2.32746 9.33341 3.75663V6.55079H5.77237C5.51716 6.55079 5.31537 6.74913 5.31537 6.99996C5.31537 7.24496 5.51716 7.44913 5.77237 7.44913H9.33341V10.2375C9.33341 11.6666 8.15233 12.8333 6.69231 12.8333H3.80192C2.34783 12.8333 1.16675 11.6725 1.16675 10.2433V3.76246C1.16675 2.32746 2.35376 1.16663 3.80786 1.16663H6.70418ZM10.8152 4.98758C10.9902 4.80674 11.276 4.80674 11.451 4.98174L13.1544 6.67924C13.2419 6.76674 13.2885 6.87758 13.2885 7.00008C13.2885 7.11674 13.2419 7.23341 13.1544 7.31508L11.451 9.01258C11.3635 9.10008 11.2469 9.14674 11.136 9.14674C11.0194 9.14674 10.9027 9.10008 10.8152 9.01258C10.6402 8.83758 10.6402 8.55174 10.8152 8.37674L11.7485 7.44924L9.33341 7.44913V6.55079L11.7485 6.55091L10.8152 5.62341C10.6402 5.44841 10.6402 5.16258 10.8152 4.98758Z" fill="#FF7373"/>
</g>
</g>
</g>
</svg>
