<svg width="20" height="20" viewBox="0 0 20 20" fill="none" xmlns="http://www.w3.org/2000/svg">
<g id="qr">
<g id="Group">
<path id="Vector" d="M13.0193 16.35H15.8118C16.6446 16.35 17.3195 15.477 17.3195 14.4084V13.1198M13.0193 2.73096H15.8118C16.6446 2.73096 17.3195 3.59696 17.3195 4.66558V5.96121M2.94458 5.96121V4.66558C2.94458 3.59702 3.61952 2.73096 4.45227 2.73096H7.23933M2.94458 13.1197V14.4083C2.94458 15.4769 3.61952 16.3499 4.45227 16.3499H7.23933" stroke="white" stroke-width="1.25" stroke-miterlimit="10" stroke-linecap="round" stroke-linejoin="round"/>
<path id="Vector_2" d="M13.0193 16.35H15.8118C16.6446 16.35 17.3195 15.477 17.3195 14.4084V13.1198M13.0193 2.73096H15.8118C16.6446 2.73096 17.3195 3.59696 17.3195 4.66558V5.96121M2.94458 5.96121V4.66558C2.94458 3.59702 3.61952 2.73096 4.45227 2.73096H7.23933M2.94458 13.1197V14.4083C2.94458 15.4769 3.61952 16.3499 4.45227 16.3499H7.23933" stroke="white" stroke-width="1.25" stroke-miterlimit="10" stroke-linecap="round" stroke-linejoin="round"/>
<g id="Group_2">
<path id="Vector_3" d="M11.7509 13.3584H13.3165C13.7835 13.3584 14.1619 12.869 14.1619 12.2698V11.5473M11.7509 5.72272H13.3165C13.7835 5.72272 14.1619 6.20828 14.1619 6.80741V7.53384M6.10229 7.53378V6.80734C6.10229 6.20822 6.48073 5.72266 6.94761 5.72266H8.51023M6.10229 11.5473V12.2698C6.10229 12.8689 6.48073 13.3583 6.94761 13.3583H8.51023" stroke="white" stroke-width="1.25" stroke-miterlimit="10" stroke-linecap="round" stroke-linejoin="round"/>
<path id="Vector_4" d="M11.7509 13.3584H13.3165C13.7835 13.3584 14.1619 12.869 14.1619 12.2698V11.5473M11.7509 5.72272H13.3165C13.7835 5.72272 14.1619 6.20828 14.1619 6.80741V7.53384M6.10229 7.53378V6.80734C6.10229 6.20822 6.48073 5.72266 6.94761 5.72266H8.51023M6.10229 11.5473V12.2698C6.10229 12.8689 6.48073 13.3583 6.94761 13.3583H8.51023" stroke="white" stroke-width="1.25" stroke-miterlimit="10" stroke-linecap="round" stroke-linejoin="round"/>
</g>
<path id="Vector_5" d="M2.94482 9.54053H17.3198" stroke="white" stroke-width="1.25" stroke-miterlimit="10" stroke-linecap="round" stroke-linejoin="round"/>
</g>
</g>
</svg>
