<svg width="21" height="20" viewBox="0 0 21 20" fill="none" xmlns="http://www.w3.org/2000/svg">
<g id="signature">
<path id="Vector" d="M15.765 2.21432C14.5716 1.02101 12.6369 1.021 11.4436 2.21432L3.16232 10.4956C3.09371 10.5642 3.04202 10.6478 3.01133 10.7399L1.44883 15.4274C1.3767 15.6438 1.4282 15.8823 1.58318 16.0497C1.73817 16.2171 1.97205 16.2867 2.19335 16.2313L7.19335 14.9813C7.30323 14.9539 7.4036 14.8971 7.4837 14.8169L14.5417 7.75892L14.649 7.86617C15.1371 8.35434 15.1371 9.14579 14.649 9.63395L12.8497 11.4331C12.6057 11.6772 12.6057 12.0729 12.8497 12.317C13.0939 12.5611 13.4896 12.5611 13.7337 12.317L15.5329 10.5178C16.5091 9.54151 16.5091 7.9586 15.5329 6.9823L15.4256 6.87505L15.765 6.53571C16.9582 5.34239 16.9582 3.40764 15.765 2.21432ZM6.37507 18.7499C4.83127 18.7499 3.61571 18.0418 2.80641 17.3666L4.41227 16.9651C4.96892 17.2771 5.62823 17.4999 6.37507 17.4999C6.88181 17.4999 7.40431 17.2949 7.96156 16.9288C8.52 16.5618 9.05933 16.0701 9.60387 15.5596L9.74566 15.4264C10.2261 14.9748 10.7257 14.5052 11.2033 14.1804C11.7134 13.8336 12.3894 13.5186 13.0995 13.7917C13.5686 13.9722 13.8732 14.3053 14.0881 14.7127C14.2896 15.0943 14.4284 15.5728 14.5634 16.0929C14.6251 16.3307 14.7297 16.5604 14.8496 16.7158C14.908 16.7916 14.9584 16.8344 14.9935 16.8561C15.0244 16.8751 15.0381 16.8751 15.0416 16.8751C15.194 16.8751 15.4555 16.7719 15.8291 16.5177C16.0609 16.3599 16.2587 16.2021 16.4569 16.0441C16.5797 15.9461 16.7027 15.8478 16.834 15.7497C17.1826 15.4887 17.4847 15.3137 17.706 15.2018C17.8165 15.1458 17.907 15.1056 17.973 15.0783C18.006 15.0647 18.0329 15.0543 18.0531 15.0467L18.0785 15.0376L18.0874 15.0344L18.0907 15.0333L18.0922 15.0328C18.0922 15.0328 18.0935 15.0323 18.2917 15.6251L18.0935 15.0323C18.4209 14.9228 18.775 15.0994 18.8845 15.4268C18.9935 15.7528 18.8189 16.1052 18.4942 16.2163L18.4894 16.2182C18.4826 16.2207 18.4695 16.2257 18.4505 16.2336C18.4125 16.2492 18.3511 16.2762 18.2702 16.3172C18.1085 16.3989 17.8689 16.5364 17.5829 16.7504C17.5096 16.8052 17.4139 16.8812 17.3046 16.9678C17.078 17.1477 16.7932 17.3736 16.5324 17.5511C16.1437 17.8156 15.6055 18.1251 15.0417 18.1251C14.4972 18.1251 14.1027 17.7942 13.8599 17.4793C13.612 17.1581 13.4457 16.7628 13.3535 16.4071C13.2164 15.8789 13.1077 15.5331 12.9826 15.2959C12.871 15.0844 12.7701 15.0043 12.6507 14.9583C12.5483 14.9189 12.344 14.9164 11.9062 15.2141C11.5149 15.4802 11.0884 15.8804 10.5837 16.3543L10.4588 16.4716C9.92 16.9767 9.30828 17.5396 8.64796 17.9734C7.98646 18.4081 7.22251 18.7499 6.37507 18.7499Z" fill="white"/>
</g>
</svg>
